<svg height="718" width="720" xmlns="http://www.w3.org/2000/svg">
<rect height="718" fill="#555" width="720"></rect>
<text fill="#7f7" font-family="Courier New" font-size="12" xml:space="preserve">
<tspan x="10" y="26">3 megabytes installed</tspan>
<tspan x="10" y="42"></tspan>
<tspan x="10" y="58">node_modules</tspan>
<tspan x="10" y="74">└─┬ resolve-url-loader@2.0.2 </tspan>
<tspan x="10" y="90">  ├─┬ adjust-sourcemap-loader@1.1.0 </tspan>
<tspan x="10" y="106">  │ ├─┬ assert@1.4.1 </tspan>
<tspan x="10" y="122">  │ │ └── util@0.10.3 </tspan>
<tspan x="10" y="138">  │ ├── camelcase@1.2.1 </tspan>
<tspan x="10" y="154">  │ ├── lodash.assign@4.2.0 </tspan>
<tspan x="10" y="170">  │ ├─┬ lodash.defaults@3.1.2 </tspan>
<tspan x="10" y="186">  │ │ ├─┬ lodash.assign@3.2.0 </tspan>
<tspan x="10" y="202">  │ │ │ ├─┬ lodash._baseassign@3.2.0 </tspan>
<tspan x="10" y="218">  │ │ │ │ └── lodash._basecopy@3.0.1 </tspan>
<tspan x="10" y="234">  │ │ │ ├─┬ lodash._createassigner@3.1.1 </tspan>
<tspan x="10" y="250">  │ │ │ │ ├── lodash._bindcallback@3.0.1 </tspan>
<tspan x="10" y="266">  │ │ │ │ └── lodash._isiterateecall@3.0.9 </tspan>
<tspan x="10" y="282">  │ │ │ └─┬ lodash.keys@3.1.2 </tspan>
<tspan x="10" y="298">  │ │ │   ├── lodash._getnative@3.9.1 </tspan>
<tspan x="10" y="314">  │ │ │   ├── lodash.isarguments@3.1.0 </tspan>
<tspan x="10" y="330">  │ │ │   └── lodash.isarray@3.0.4 </tspan>
<tspan x="10" y="346">  │ │ └── lodash.restparam@3.6.1 </tspan>
<tspan x="10" y="362">  │ ├── object-path@0.9.2 </tspan>
<tspan x="10" y="378">  │ └── regex-parser@2.2.7 </tspan>
<tspan x="10" y="394">  ├── camelcase@4.1.0 </tspan>
<tspan x="10" y="410">  ├── convert-source-map@1.5.0 </tspan>
<tspan x="10" y="426">  ├─┬ loader-utils@1.1.0 </tspan>
<tspan x="10" y="442">  │ ├── big.js@3.1.3 </tspan>
<tspan x="10" y="458">  │ ├── emojis-list@2.1.0 </tspan>
<tspan x="10" y="474">  │ └── json5@0.5.1 </tspan>
<tspan x="10" y="490">  ├── lodash.defaults@4.2.0 </tspan>
<tspan x="10" y="506">  ├─┬ rework@1.0.1 </tspan>
<tspan x="10" y="522">  │ ├── convert-source-map@0.3.5 </tspan>
<tspan x="10" y="538">  │ └─┬ css@2.2.1 </tspan>
<tspan x="10" y="554">  │   ├── inherits@2.0.1 </tspan>
<tspan x="10" y="570">  │   ├─┬ source-map@0.1.43 </tspan>
<tspan x="10" y="586">  │   │ └── amdefine@1.0.1 </tspan>
<tspan x="10" y="602">  │   └─┬ source-map-resolve@0.3.1 </tspan>
<tspan x="10" y="618">  │     ├── atob@1.1.3 </tspan>
<tspan x="10" y="634">  │     ├── resolve-url@0.2.1 </tspan>
<tspan x="10" y="650">  │     └── source-map-url@0.3.0 </tspan>
<tspan x="10" y="666">  ├── rework-visit@1.0.0 </tspan>
<tspan x="10" y="682">  ├── source-map@0.5.6 </tspan>
<tspan x="10" y="698">  └── urix@0.1.0</tspan>
</text>
</svg>
